<svg width="16" height="16" viewBox="0 0 16 16" fill="none" xmlns="http://www.w3.org/2000/svg">
<path d="M7.4886 5.65217C7.92186 5.26977 8.19512 4.71027 8.19512 4.08696C8.19512 2.93436 7.26076 2 6.10816 2C4.95557 2 4.02121 2.93436 4.02121 4.08696C4.02121 4.71027 4.29447 5.26977 4.72773 5.65217H2V7.90099C2.23559 7.8088 2.49202 7.75818 2.76028 7.75818C3.91288 7.75818 4.84724 8.69254 4.84724 9.84514C4.84724 10.9977 3.91288 11.9321 2.76028 11.9321C2.49202 11.9321 2.23559 11.8815 2 11.7893V14H10.3478V11.2065C10.7302 11.6398 11.2897 11.913 11.913 11.913C13.0656 11.913 14 10.9787 14 9.82609C14 8.67349 13.0656 7.73913 11.913 7.73913C11.2897 7.73913 10.7302 8.01239 10.3478 8.44566V5.65217H7.4886Z" fill="#ADB7BE"/>
</svg>
