<svg id="Слой_1" data-name="Слой 1" xmlns="http://www.w3.org/2000/svg" viewBox="0 0 16 16"><defs><style>.cls-1{fill:#adbac1;}</style></defs><title>Application 2 16x16</title><path class="cls-1" d="M6,10.66H3.77a.82.82,0,0,1-.84-.84V4.71H13V6.87a4.8,4.8,0,0,1,.93.87V3.13A1.12,1.12,0,0,0,12.83,2H3.13A1.12,1.12,0,0,0,2,3.13v7.12a1.13,1.13,0,0,0,1.13,1.12h3A4.17,4.17,0,0,1,6,10.66ZM6.7,2.81a.53.53,0,0,1,.53.53.54.54,0,1,1-.53-.53Zm-1.62,0a.53.53,0,0,1,.54.53.54.54,0,0,1-.54.53.54.54,0,0,1-.54-.53A.54.54,0,0,1,5.08,2.81Zm-1.61,0A.53.53,0,0,1,4,3.34a.54.54,0,1,1-.53-.53Z"/><path class="cls-1" d="M10.47,6.92A3.53,3.53,0,1,0,14,10.45,3.53,3.53,0,0,0,10.47,6.92Zm1.7,2.78L10.63,12a.54.54,0,0,1-.4.23h0a.49.49,0,0,1-.39-.19l-1-1.28a.5.5,0,0,1,.79-.62l.57.73,1.17-1.76A.5.5,0,0,1,12,9,.51.51,0,0,1,12.17,9.7Z"/></svg>