<svg id="Слой_1" data-name="Слой 1" xmlns="http://www.w3.org/2000/svg" viewBox="0 0 16 16"><defs><style>.cls-1{fill:#adbac1;}</style></defs><title>Build script 16x16</title><polygon class="cls-1" points="2.75 5.06 5.85 5.06 5.85 2 2.75 5.06"/><path class="cls-1" d="M13.94,11.32v-.78a.15.15,0,0,0-.16-.15h-.49a2.66,2.66,0,0,0-.35-.83l.41-.41a.18.18,0,0,0,0-.11.17.17,0,0,0,0-.11l-.55-.55a.16.16,0,0,0-.22,0l-.42.42a2.76,2.76,0,0,0-.75-.31V8a.15.15,0,0,0-.15-.15h-.78a.15.15,0,0,0-.15.15v.53a2.55,2.55,0,0,0-.78.31L9.1,8.34a.14.14,0,0,0-.22,0l-.54.55A.22.22,0,0,0,8.29,9a.13.13,0,0,0,.05.11l.43.44a2.53,2.53,0,0,0-.35.84H7.93a.15.15,0,0,0-.15.15v.78a.16.16,0,0,0,.15.16h.49a2.59,2.59,0,0,0,.31.77l-.39.4a.19.19,0,0,0-.05.11.14.14,0,0,0,.05.11l.54.55a.17.17,0,0,0,.11,0,.14.14,0,0,0,.11,0L9.49,13a2.15,2.15,0,0,0,.85.36v.46a.15.15,0,0,0,.15.15h.78a.15.15,0,0,0,.15-.15v-.47a2.15,2.15,0,0,0,.82-.35l.33.33a.14.14,0,0,0,.11.05.18.18,0,0,0,.11-.05l.54-.55a.15.15,0,0,0,0-.22L13,12.25a2.57,2.57,0,0,0,.3-.77h.49a.16.16,0,0,0,.16-.16Zm-3.09,1a1.4,1.4,0,1,1,1.39-1.4A1.39,1.39,0,0,1,10.85,12.33Z"/><path class="cls-1" d="M6.41,10.93a4.44,4.44,0,0,1,4.44-4.44h0V2h-4V6H2.75v7.29H7.08A4.41,4.41,0,0,1,6.41,10.93Z"/></svg>