<svg id="Слой_1" data-name="Слой 1" xmlns="http://www.w3.org/2000/svg" viewBox="0 0 16 16"><defs><style>.cls-1{fill:#55bae2;}.cls-2{fill:#adbac1;}</style></defs><title>Custom UI 16x16</title><path class="cls-1" d="M10.62,9.49h0A3.38,3.38,0,0,1,14,12.86V14a0,0,0,0,1,0,0H7.25a0,0,0,0,1,0,0V12.86A3.38,3.38,0,0,1,10.62,9.49Z"/><path class="cls-2" d="M10.53,4.67A1.78,1.78,0,1,0,12.3,6.45,1.78,1.78,0,0,0,10.53,4.67Zm0,2.57a.79.79,0,1,1,.79-.79A.79.79,0,0,1,10.53,7.24Z"/><path class="cls-2" d="M8,6.45A2.78,2.78,0,0,1,9,4.32l-.36-.64A1.15,1.15,0,0,0,7,3.25L5.79,4A4.77,4.77,0,0,1,5.61,2.9c0-.87-1.13-1.13-1.81-.69s-1,1.6-.28,2A4.48,4.48,0,0,1,4.33,5L2.58,6.09a1.35,1.35,0,0,0-.41,1.77l1,1.71A5.88,5.88,0,0,0,4,8.43c.41-.76,1.48-.44,1.9.3s.18,1.89-.64,1.94A5.09,5.09,0,0,0,3.94,11l.89,1.57A1.14,1.14,0,0,0,6.38,13,4.52,4.52,0,0,1,9.3,8.8,2.74,2.74,0,0,1,8,6.45Z"/></svg>