<svg id="Слой_1" data-name="Слой 1" xmlns="http://www.w3.org/2000/svg" viewBox="0 0 16 16"><defs><style>.cls-1{fill:#9ec3e3;}.cls-2{fill:#519ed4;}</style></defs><title>HSQL 16x16</title><path class="cls-1" d="M11.94,11.79A5.74,5.74,0,0,0,8,2H7.71A5,5,0,0,0,2.38,7.42a5,5,0,0,0,5.06,4.87,4.94,4.94,0,0,0,2.2-.51L11.85,14,13.05,13,11,10.83Z"/><path class="cls-2" d="M6.94,6.67,9,8.72a1.54,1.54,0,0,0-.14-2.05A1.5,1.5,0,0,0,6.94,6.67Z"/><path class="cls-2" d="M9.64,11.78A8.26,8.26,0,0,0,11,10.83c.8.8,2.08,2.12,2.08,2.12L11.85,14Z"/><path class="cls-2" d="M11,10.83l-1-1.09a2.54,2.54,0,0,0,.65-3.19A3,3,0,0,0,7.38,4.81,2.39,2.39,0,0,0,5.29,7.23,2,2,0,0,0,6.86,9.32s1.58.27,2.13-.6c.68.72.92,1,.92,1a2.87,2.87,0,0,1-1.55,1A3.84,3.84,0,0,1,5.11,10,4,4,0,0,1,4,6.27,3.82,3.82,0,0,1,6.76,3.53,4.51,4.51,0,0,1,11,4.64a4.44,4.44,0,0,1,1.24,3.05A4.66,4.66,0,0,1,11,10.83Z"/></svg>