<svg id="Слой_1" data-name="Слой 1" xmlns="http://www.w3.org/2000/svg" viewBox="0 0 16 16"><defs><style>.cls-1{fill:#00546b;}</style></defs><title>MySQL 16x16</title><path class="cls-1" d="M13.05,11.19a.22.22,0,0,0-.05-.08.72.72,0,0,0-.21-.18c-.29-.18-.55-.38-.83-.57a2.75,2.75,0,0,0-.41-.24L11.18,10l-.55-.19a1,1,0,0,1-.24-.1.25.25,0,0,1-.12-.11,3.77,3.77,0,0,1-.39-.67L9.22,7.47c-.06-.13-.12-.27-.17-.41a3.68,3.68,0,0,0-.31-.63A7.18,7.18,0,0,0,7.4,4.76,6.83,6.83,0,0,0,5.8,3.65a4,4,0,0,0-.6-.24l-.29,0a3.87,3.87,0,0,1-.49-.05H4.29a.18.18,0,0,1-.14,0L4,3.19a2.13,2.13,0,0,0-.43-.31,5.16,5.16,0,0,0-.73-.31.43.43,0,0,0-.25,0,.24.24,0,0,0-.16.07.26.26,0,0,0-.06.19.73.73,0,0,0,.12.32,3.58,3.58,0,0,0,.29.39c.14.19.28.39.41.59a2.82,2.82,0,0,1,.28.64c.08.25.16.51.25.76a3.09,3.09,0,0,0,.36.7,1,1,0,0,0,.14.15.72.72,0,0,1,.17.22.42.42,0,0,1,0,.22,3.27,3.27,0,0,1-.17.53A2.23,2.23,0,0,0,4.1,8a2.82,2.82,0,0,0,0,.58,3.28,3.28,0,0,0,.18,1,2.14,2.14,0,0,0,.21.43.5.5,0,0,0,.24.19s.06,0,.06,0l.06-.49A2.59,2.59,0,0,1,5,8.92a1.19,1.19,0,0,1,.09-.15l.3-.39,0,0s0,0,0,.06A5,5,0,0,0,5.65,9a10.58,10.58,0,0,0,1.14,2,4.4,4.4,0,0,0,.4.46l.09.06.12.11h0a.66.66,0,0,1-.23-.17,7.31,7.31,0,0,0-.59-.52,4.65,4.65,0,0,1-.74-.79,1.82,1.82,0,0,1-.16-.31L5.4,9.34l0,.09a2.56,2.56,0,0,1,0,.27c0,.13,0,.26-.05.39a1.55,1.55,0,0,1-.06.23.46.46,0,0,1-.65.25.91.91,0,0,1-.33-.29,2.25,2.25,0,0,1-.39-.81,3.09,3.09,0,0,1-.12-.74,3.32,3.32,0,0,1,0-.63,3.32,3.32,0,0,1,.15-.75c0-.11.05-.23.08-.35a1.09,1.09,0,0,1,.09-.23s0,0,0,0A.19.19,0,0,0,4,6.61a1.87,1.87,0,0,1-.33-.45,6.19,6.19,0,0,1-.41-1C3.17,5,3.09,4.78,3,4.56a1.24,1.24,0,0,0-.19-.36l-.5-.66A1.73,1.73,0,0,1,2.06,3a.74.74,0,0,1,.1-.66.61.61,0,0,1,.41-.25,1.27,1.27,0,0,1,.58.06A3.7,3.7,0,0,1,4,2.59l.26.2,0,0a.35.35,0,0,0,.26.1,3.87,3.87,0,0,1,.48,0,.65.65,0,0,1,.19,0,4,4,0,0,1,.59.16,2.05,2.05,0,0,1,.39.2,9.66,9.66,0,0,1,1.35,1A7.79,7.79,0,0,1,8.9,5.77a5.13,5.13,0,0,1,.44.7c.09.18.16.37.23.55.24.55.48,1.09.75,1.62.07.13.13.27.2.41s.09.14.14.22a.22.22,0,0,0,.12.09c.29.11.57.25.85.37a3.61,3.61,0,0,1,.53.33,9.77,9.77,0,0,1,1,.79,1.8,1.8,0,0,1,.19.2l.21.27a.05.05,0,0,1,0,.09l-.48.13-.34.05a2,2,0,0,0-.47.09,3,3,0,0,1-.43.1A.6.6,0,0,0,12,12a2.26,2.26,0,0,0,.36.27l.25.14a3.62,3.62,0,0,1,1,.9,1.14,1.14,0,0,0,.15.16h0a.52.52,0,0,1,.19.27l0,.08,0,0,0,0a.18.18,0,0,1-.07-.05A4.92,4.92,0,0,0,12.64,13a3.44,3.44,0,0,1-.78-.47,1.74,1.74,0,0,1-.36-.3,1.6,1.6,0,0,1-.26-.38l-.06-.13,0,0s0-.05,0-.08a.2.2,0,0,1,.11-.09l.11,0,.29-.1a3.75,3.75,0,0,1,.58-.13,6.78,6.78,0,0,1,.78,0h0Z"/><path class="cls-1" d="M14.15,14,14,14l-.06,0-.08-.06a1.78,1.78,0,0,0-.26-.22l-.13-.1a3.71,3.71,0,0,0-.83-.47,4,4,0,0,1-.8-.48l-.07-.05a1.88,1.88,0,0,1-.3-.27,2.21,2.21,0,0,1-.28-.4l0-.08,0,0a.15.15,0,0,1,0-.2.24.24,0,0,1,.16-.13l.06,0,.05,0,.29-.1a3.15,3.15,0,0,1,.6-.13,6.25,6.25,0,0,1,.64,0,.38.38,0,0,0-.13-.1l-.49-.33-.34-.24-.08,0a2.69,2.69,0,0,0-.32-.19l-.36-.13L10.89,10l-.3-.1-.24-.1a.42.42,0,0,1-.16-.14A4.18,4.18,0,0,1,9.8,9L9.73,8.8c-.2-.43-.4-.86-.59-1.29A4.4,4.4,0,0,1,9,7.09a3.46,3.46,0,0,0-.3-.61A7.31,7.31,0,0,0,7.34,4.83,6.48,6.48,0,0,0,5.76,3.74a3.28,3.28,0,0,0-.59-.24l-.27,0H4.74c-.11,0-.23,0-.34,0H4.3a.34.34,0,0,1-.2-.06L4,3.25A2,2,0,0,0,3.54,3a4.37,4.37,0,0,0-.71-.31.44.44,0,0,0-.2,0,.23.23,0,0,0-.11,0,.21.21,0,0,0,0,.12.75.75,0,0,0,.11.28,1.44,1.44,0,0,0,.18.25,1.13,1.13,0,0,1,.1.13c.14.19.29.39.42.6a2.59,2.59,0,0,1,.28.64c0,.13.08.24.12.35s.09.29.14.43a2.75,2.75,0,0,0,.35.68l.1.1,0,0a.81.81,0,0,1,.18.26.51.51,0,0,1,0,.27,4.26,4.26,0,0,1-.17.54A2.59,2.59,0,0,0,4.19,8a3.63,3.63,0,0,0,0,.57,2.87,2.87,0,0,0,.18,1,1.63,1.63,0,0,0,.2.42.35.35,0,0,0,.14.13V10a2.91,2.91,0,0,1,0-.31,2.79,2.79,0,0,1,.18-.76A.65.65,0,0,1,5,8.72l.22-.29.15-.19.08.08,0,0a.19.19,0,0,1,0,.09,4,4,0,0,0,.17.44l0,.08a9.8,9.8,0,0,0,1.13,1.94,3.63,3.63,0,0,0,.39.44l0,0,0,0,.08.08.1.08-.08.13H7.36l0,0a.81.81,0,0,1-.26-.18,3.31,3.31,0,0,0-.44-.4L6.48,11a4.3,4.3,0,0,1-.75-.8,1.41,1.41,0,0,1-.13-.24l0-.09-.12-.24s0,.07,0,.11l0,.16,0,.23-.06.25a.56.56,0,0,1-.3.32.61.61,0,0,1-.48,0,1.17,1.17,0,0,1-.36-.32,2.41,2.41,0,0,1-.41-.85,3.45,3.45,0,0,1-.13-.75,4.7,4.7,0,0,1,0-.65,4.3,4.3,0,0,1,.16-.76c0-.08,0-.15,0-.22l0-.13A.85.85,0,0,1,4,6.74l0-.06a1.46,1.46,0,0,1-.32-.43l0,0a5.74,5.74,0,0,1-.41-1l-.05-.13A4.1,4.1,0,0,1,3,4.58a.89.89,0,0,0-.18-.33l-.33-.44-.17-.22A1.79,1.79,0,0,1,2,3.06a.81.81,0,0,1,.11-.74A.67.67,0,0,1,2.55,2a1.34,1.34,0,0,1,.62.06,3.88,3.88,0,0,1,.91.42l.19.15.08.06,0,0a.35.35,0,0,0,.2.07l.49,0,.16,0,0,0a3.63,3.63,0,0,1,.6.17,1.79,1.79,0,0,1,.4.19,10.82,10.82,0,0,1,1.37,1A7.77,7.77,0,0,1,9,5.72v0a4.43,4.43,0,0,1,.43.69c.06.12.11.25.17.38A.87.87,0,0,0,9.66,7c.27.63.5,1.15.75,1.62l.1.21.09.2.1.15,0,.06.09.06c.23.08.46.19.68.29l.16.08a2.55,2.55,0,0,1,.48.29l.08.05a11,11,0,0,1,1,.78,1.41,1.41,0,0,1,.17.18l0,0,.15.18.07.09a.16.16,0,0,1,0,.15.13.13,0,0,1-.1.09l-.12,0-.36.09-.3,0h0a3.26,3.26,0,0,0-.45.09l-.32.08.06.07a2,2,0,0,0,.35.26l.17.1.08,0a3.68,3.68,0,0,1,1,.92l.1.11.05.05a.64.64,0,0,1,.22.32l0,0,0,.06Zm-2.91-2.41,0,.05,0,.06,0,.07a1.69,1.69,0,0,0,.52.6l.07,0a4.12,4.12,0,0,0,.77.46,3.48,3.48,0,0,1,.86.5h0l0,0a3.67,3.67,0,0,0-1-.88l-.07,0-.17-.1a2.55,2.55,0,0,1-.39-.28.76.76,0,0,1-.16-.25l-.05-.11.12,0a2.07,2.07,0,0,0,.43-.09,2.4,2.4,0,0,1,.48-.1h0l.28,0,.35-.09.07,0,0-.05-.14-.18,0,0a1,1,0,0,0-.14-.15,9.72,9.72,0,0,0-1-.78L12,10.09a3.57,3.57,0,0,0-.45-.27l-.17-.08-.67-.29a.29.29,0,0,1-.17-.13l0-.05-.1-.18a1.24,1.24,0,0,1-.1-.2,2,2,0,0,0-.1-.21c-.24-.47-.48-1-.75-1.62l-.08-.18c-.05-.12-.1-.25-.16-.37a4.53,4.53,0,0,0-.41-.66l0,0A7.41,7.41,0,0,0,7.51,4.36a10.07,10.07,0,0,0-1.34-.94,2.18,2.18,0,0,0-.37-.19,4.6,4.6,0,0,0-.58-.16l0,0L5,3,4.57,3a.48.48,0,0,1-.33-.12L4.15,2.8,4,2.67a3.29,3.29,0,0,0-.86-.4,1.32,1.32,0,0,0-.54-.06.52.52,0,0,0-.35.22A.61.61,0,0,0,2.15,3a1.87,1.87,0,0,0,.27.48l.17.22.33.44a1.17,1.17,0,0,1,.21.4,5,5,0,0,0,.16.51l0,.13a5.43,5.43,0,0,0,.4.93l0,0A1.34,1.34,0,0,0,4,6.54a.27.27,0,0,1,.1.17.11.11,0,0,1,0,.11A.84.84,0,0,0,4.05,7l0,.12c0,.07,0,.15,0,.23a3.27,3.27,0,0,0-.15.73,4.26,4.26,0,0,0,0,.62,3.9,3.9,0,0,0,.12.71,2.15,2.15,0,0,0,.38.79.89.89,0,0,0,.3.26.37.37,0,0,0,.31,0,.32.32,0,0,0,.2-.21,2.18,2.18,0,0,0,.06-.22l0-.22s0-.11,0-.16,0-.19,0-.28a.19.19,0,0,0,0-.07l.09-.24.17.34.16.33,0,.09a1,1,0,0,0,.11.21,4.07,4.07,0,0,0,.67.72,10,10,0,0,1-1-1.74l0-.08a2.61,2.61,0,0,1-.16-.42,3,3,0,0,0-.22.28A.83.83,0,0,0,5.08,9a2.64,2.64,0,0,0-.17.7l0,.31,0,.18a.17.17,0,0,1-.06.1.19.19,0,0,1-.13,0A.63.63,0,0,1,4.38,10a2.23,2.23,0,0,1-.21-.44A3.34,3.34,0,0,1,4,8.53c0-.19,0-.39,0-.59a3.55,3.55,0,0,1,.16-.66,3,3,0,0,0,.17-.5.31.31,0,0,0,0-.17.52.52,0,0,0-.14-.19l0,0A.55.55,0,0,1,4,6.25a2.94,2.94,0,0,1-.38-.72c0-.14-.09-.29-.14-.43L3.4,4.77a2.7,2.7,0,0,0-.27-.62c-.13-.2-.27-.4-.41-.59l-.1-.12c-.06-.09-.13-.18-.19-.28a.77.77,0,0,1-.13-.35.37.37,0,0,1,.08-.26.42.42,0,0,1,.22-.11.66.66,0,0,1,.29,0,4.73,4.73,0,0,1,.74.32,2.33,2.33,0,0,1,.46.32l.11.08a.16.16,0,0,0,.09,0h.14a1.63,1.63,0,0,0,.31,0h.17a1.67,1.67,0,0,1,.31,0,3.78,3.78,0,0,1,.62.25A6.87,6.87,0,0,1,7.47,4.69,7.66,7.66,0,0,1,8.82,6.38,4.92,4.92,0,0,1,9.14,7c0,.12.1.25.17.41L9.9,8.72l.07.15a4.11,4.11,0,0,0,.37.66.32.32,0,0,0,.09.08l.23.1.29.1.27.08.36.14a2,2,0,0,1,.35.2l.08.06a4,4,0,0,1,.34.23c.16.11.32.23.49.33a1,1,0,0,1,.24.2l0,.07.05.08-.08.1H13a5.88,5.88,0,0,0-.77,0,2.21,2.21,0,0,0-.56.12l-.29.1h-.06l-.05,0Zm0,0Zm2.3-.27Z"/><path class="cls-1" d="M4.41,4.17l.09,0,.22,0s0,0,0,0l.1.07A.43.43,0,0,1,5,4.37a.31.31,0,0,0,0,.1,0,0,0,0,0,0,0A.55.55,0,0,1,5,4.8l-.1.1-.06-.11-.09-.2a.66.66,0,0,0-.12-.17,1.41,1.41,0,0,1-.18-.23S4.42,4.18,4.41,4.17Z"/><path class="cls-1" d="M4.85,5.07l-.14-.3a.61.61,0,0,1-.07-.14.44.44,0,0,0-.1-.15l0,0a.89.89,0,0,1-.16-.22l-.13-.12.2,0,.07,0,.22,0a.2.2,0,0,1,.1,0l.06,0,0,0a.39.39,0,0,1,.17.19l0,.06,0,.06v0a.57.57,0,0,1-.1.36L5,4.93Zm-.28-.84.08.09,0,0a.72.72,0,0,1,.13.19.61.61,0,0,0,.07.14l0,0h0A.37.37,0,0,0,5,4.51v0a.43.43,0,0,1,0-.07.29.29,0,0,0-.1-.12l-.06,0,0,0Z"/></svg>