<svg id="Слой_1" data-name="Слой 1" xmlns="http://www.w3.org/2000/svg" viewBox="0 0 16 16"><defs><style>.cls-1{fill:#adbac1;}.cls-2{fill:#d82d29;}</style></defs><title>Microsoft SQL 16x16</title><path class="cls-1" d="M3.39,10.26s-1.79,1.4,0,2.66A8,8,0,0,0,7.84,14S10,10.46,9,7,7.4,3.83,6.87,2c-.8.31-2.77,1-2.62,1.34.38.24,2,1.48,2,1.48l0,2.51Z"/><path class="cls-2" d="M4.25,3.34S6.35,4.93,6,6.51s-2.61,3.75-2.61,3.75,5.36-3.1,10-3.4A5.72,5.72,0,0,0,9.92,4.54C9.26,4.34,5.19,3.74,4.25,3.34Z"/></svg>