<svg id="Слой_1" data-name="Слой 1" xmlns="http://www.w3.org/2000/svg" viewBox="0 0 16 16"><defs><style>.cls-1{fill:#d82d29;}.cls-2{fill:#adbac1;}.cls-3{fill:#fff;}</style></defs><title>Oracle 16x16</title><path class="cls-1" d="M10.74,7.39A3.31,3.31,0,1,0,14,10.69,3.28,3.28,0,0,0,10.74,7.39Z"/><path class="cls-2" d="M6.75,10.69a4.09,4.09,0,0,1,.41-1.75L6.37,9a12.73,12.73,0,0,1-2.8-.28,3.07,3.07,0,0,1-.88-.33c-.19-.12-.25-.22-.25-.31V6.37l0,0a3.6,3.6,0,0,0,1,.39,12.8,12.8,0,0,0,2.91.29,12.65,12.65,0,0,0,2.9-.29,3.67,3.67,0,0,0,1-.39h0L10.74,6V3.37s0,0,0-.05a.87.87,0,0,0-.45-.64,3.38,3.38,0,0,0-1-.39A13.23,13.23,0,0,0,6.37,2h0a13.39,13.39,0,0,0-2.91.29,3.31,3.31,0,0,0-1,.39A.87.87,0,0,0,2,3.31V5.69H2v4.67a.86.86,0,0,0,.46.69,3.32,3.32,0,0,0,1,.38,12.8,12.8,0,0,0,2.91.29H6.9A3.88,3.88,0,0,1,6.75,10.69ZM2.69,3.05a3.07,3.07,0,0,1,.88-.33,12.73,12.73,0,0,1,2.8-.28,12.8,12.8,0,0,1,2.8.28,3.32,3.32,0,0,1,.88.33c.18.12.24.22.25.3v0c0,.09-.06.19-.25.31A3.32,3.32,0,0,1,9.17,4a12.21,12.21,0,0,1-2.8.28A12.15,12.15,0,0,1,3.57,4a3.07,3.07,0,0,1-.88-.33c-.19-.12-.25-.22-.25-.31S2.5,3.18,2.69,3.05Z"/><path class="cls-3" d="M10.77,8.91a1.67,1.67,0,0,1,1.53,1.84,1.7,1.7,0,0,1-1.53,1.88,1.69,1.69,0,0,1-1.53-1.88A1.66,1.66,0,0,1,10.77,8.91Zm0,2.92c.43,0,.79-.47.79-1.08s-.36-1-.79-1-.79.45-.79,1S10.33,11.83,10.77,11.83Z"/></svg>