<svg id="Слой_1" data-name="Слой 1" xmlns="http://www.w3.org/2000/svg" viewBox="0 0 16 16"><defs><style>.cls-1{fill:#336791;}.cls-2{fill:#fff;}</style></defs><title>PostgreSQL 16x16</title><g id="Layer_3"><path d="M10.88,10.73c.08-.63.06-.72.53-.62h.12a2.69,2.69,0,0,0,1.12-.19c.6-.28,1-.75.37-.62-1.36.28-1.45-.18-1.45-.18C13,7,13.6,4.31,13.08,3.65c-1.41-1.8-3.85-.95-3.89-.93h0a4.85,4.85,0,0,0-.9-.1,2.25,2.25,0,0,0-1.44.43S2.5,1.27,2.7,5.31c0,.86,1.23,6.51,2.65,4.81.52-.63,1-1.15,1-1.15a1.29,1.29,0,0,0,.86.21l0,0a.71.71,0,0,0,0,.25c-.37.41-.26.48-1,.63s-.31.42,0,.49A1.5,1.5,0,0,0,7.93,10l0,.08c.14.12.13.83.15,1.34a5.47,5.47,0,0,0,.16,1.26c.11.28.23,1,1.19.79.8-.17,1.42-.42,1.47-2.73"/><path d="M9.09,14a1.33,1.33,0,0,1-1.31-1.08l0-.08a4.93,4.93,0,0,1-.19-1.41v-.49A2.19,2.19,0,0,1,6.13,11a1.2,1.2,0,0,1-.62-.35,1,1,0,0,1-1,.22C3,10.38,2.21,5.73,2.19,5.34a2.91,2.91,0,0,1,1-2.71c1.16-.82,2.9-.35,3.56-.13a2.65,2.65,0,0,1,1.51-.37,4.63,4.63,0,0,1,.85.08,4,4,0,0,1,4.34,1.13c.72.92,0,3.59-1.17,5.55a2.74,2.74,0,0,0,.6-.08c.66-.13.85.25.89.38.2.61-.67,1.07-.94,1.2a3.22,3.22,0,0,1-1.35.23H11.4v.16c-.07,2.35-.71,2.93-1.88,3.18A2.18,2.18,0,0,1,9.09,14ZM8.22,9.68c.29.23.32.65.34,1.43v.28a5.29,5.29,0,0,0,.12,1.1l0,.11c.11.32.15.45.57.37.6-.13,1-.22,1.08-2.25l0-.16c0-.38.07-.67.34-.86a.81.81,0,0,1,.53-.13.74.74,0,0,1-.2-.34L11,9l.12-.17C12.57,6.73,13,4.33,12.68,4c-1.18-1.51-3.28-.78-3.3-.77l-.07,0h0l-.1,0-.11,0a5,5,0,0,0-.81-.09,1.71,1.71,0,0,0-1.12.33l-.23.17-.27-.1c-.52-.22-2.05-.65-2.85-.08a2,2,0,0,0-.6,1.84c.06,1.13,1,4.52,1.61,4.64A.39.39,0,0,0,5,9.79c.53-.63,1-1.17,1-1.17l.29-.31.35.24A.82.82,0,0,0,7,8.68L7.86,8l-.1,1.21a.24.24,0,0,0,0,.12l0,.24-.16.17h0L8,9.93Z"/><path class="cls-1" d="M13,9.31c-1.36.28-1.45-.18-1.45-.18C13,7,13.6,4.31,13.08,3.65c-1.41-1.8-3.85-.95-3.89-.93h0a4.85,4.85,0,0,0-.9-.1,2.25,2.25,0,0,0-1.44.43S2.5,1.27,2.7,5.31c0,.86,1.23,6.51,2.65,4.81.52-.63,1-1.15,1-1.15a1.29,1.29,0,0,0,.86.21l0,0a.71.71,0,0,0,0,.25c-.37.41-.26.48-1,.63s-.31.42,0,.49A1.5,1.5,0,0,0,7.93,10l0,.08a2.56,2.56,0,0,1,.23,1.32,3.68,3.68,0,0,0,.08,1.28c.12.3.23,1,1.19.79a1.42,1.42,0,0,0,1.28-1.36c0-.53.13-.45.14-.93L10.9,11c.09-.72,0-.95.51-.84h.12a2.69,2.69,0,0,0,1.12-.19c.6-.28,1-.75.37-.62Z"/><path class="cls-2" d="M9.14,13.69A1.22,1.22,0,0,1,8,12.78a13.77,13.77,0,0,1-.15-3.07A.17.17,0,0,1,8,9.55a.17.17,0,0,1,.16.17,12.73,12.73,0,0,0,.13,2.94.89.89,0,0,0,1.18.65,1.15,1.15,0,0,0,1.09-1.1c.09-.53.27-2,.29-2.34A.16.16,0,0,1,11,9.72a.17.17,0,0,1,.16.18c0,.31-.21,1.81-.3,2.37a1.48,1.48,0,0,1-1.35,1.37A2.08,2.08,0,0,1,9.14,13.69Z"/><path class="cls-2" d="M4.8,10.59a.65.65,0,0,1-.21,0c-1.25-.41-2-4.71-2.07-5.25A2.61,2.61,0,0,1,3.4,2.88c1.27-.9,3.41,0,3.5,0A.16.16,0,0,1,7,3.09a.17.17,0,0,1-.22.1s-2-.83-3.17,0a2.26,2.26,0,0,0-.74,2.13c0,.76.87,4.62,1.84,4.94.06,0,.24.09.51-.24.52-.62,1-1.11,1-1.12a.16.16,0,0,1,.24,0,.17.17,0,0,1,0,.23s-.47.5-1,1.11A.89.89,0,0,1,4.8,10.59Z"/><path class="cls-2" d="M11.56,9.28a.19.19,0,0,1-.1,0,.17.17,0,0,1,0-.23c1.44-2.15,1.95-4.73,1.52-5.28-1.29-1.65-3.48-1-3.68-.88h0A.19.19,0,0,1,9,2.78a.17.17,0,0,1,.07-.22h.06c.42-.14,2.68-.75,4,1,.62.79-.14,3.65-1.5,5.67A.17.17,0,0,1,11.56,9.28Z"/><path class="cls-2" d="M11.63,10.27a1.31,1.31,0,0,1-.61-.11.35.35,0,0,1-.17-.27c0-.64.31-.77.5-.82A.47.47,0,0,0,11.26,9a2.77,2.77,0,0,1-.37-.59l-.13-.26c-.35-.63-1.08-1.93-.61-2.6a1.28,1.28,0,0,1,1.27-.37A3.5,3.5,0,0,0,8.26,2.78h0a2,2,0,0,0-1.49.58A3.84,3.84,0,0,0,5.9,5.84.17.17,0,0,1,5.73,6a.18.18,0,0,1-.17-.16,4.21,4.21,0,0,1,.93-2.73,2.34,2.34,0,0,1,1.73-.67h0A3.81,3.81,0,0,1,11.8,5.27a.2.2,0,0,1-.14.22H11.6c-.43-.07-1-.09-1.17.2-.35.5.33,1.72.62,2.25a1.61,1.61,0,0,1,.15.29,1.8,1.8,0,0,0,.33.51,1.08,1.08,0,0,1,.19.32s.2.28,1.25.07c.28-.06.44,0,.5.15s-.45.64-.76.79A2.93,2.93,0,0,1,11.63,10.27Zm-.09-.91-.07,0c-.16,0-.31.09-.28.5a2.26,2.26,0,0,0,1.38-.12,1.58,1.58,0,0,0,.48-.31h0a2,2,0,0,1-1.45,0Z"/><path class="cls-2" d="M6.74,10.75a2.11,2.11,0,0,1-.54-.07s-.52-.14-.51-.44.4-.35.54-.38c.52-.11.55-.15.71-.36l.19-.22h0a.49.49,0,0,1,.63-.15.69.69,0,0,1,.37.44.58.58,0,0,1-.07.5A1.56,1.56,0,0,1,6.74,10.75Zm-.68-.49a.73.73,0,0,0,.23.09,1.33,1.33,0,0,0,1.5-.48.27.27,0,0,0,0-.21.34.34,0,0,0-.18-.22c-.09,0-.14-.06-.25.06h0c-.07.09-.13.15-.17.21-.21.26-.3.35-.91.48A.78.78,0,0,0,6.06,10.26Z"/><path class="cls-2" d="M7.23,9.55a.16.16,0,0,1-.16-.14.17.17,0,0,1,0-.07A1.54,1.54,0,0,1,6,8.86,1.8,1.8,0,0,1,5.53,7.4,6.14,6.14,0,0,0,5.57,6a1.36,1.36,0,0,1,0-.18c0-.27.79-.62,1.25-.66a.87.87,0,0,1,1.06.71,3.35,3.35,0,0,1-.18,2.45c0,.09-.07.16-.1.24l0,.07a1.57,1.57,0,0,0-.17.71.18.18,0,0,1-.14.19ZM5.9,5.89V6a7.22,7.22,0,0,1,0,1.44,1.39,1.39,0,0,0,.37,1.19A1.19,1.19,0,0,0,7.09,9c0-.15.1-.31.16-.48l0-.07a2.72,2.72,0,0,1,.11-.25A3.1,3.1,0,0,0,7.54,6a.51.51,0,0,0-.39-.44A1.9,1.9,0,0,0,5.9,5.89Z"/><path class="cls-2" d="M6.82,5.82s.1.2.24.22a.26.26,0,0,0,.27-.15c0-.06-.1-.12-.24-.14s-.26,0-.27.07Z"/><path class="cls-2" d="M7.1,6.1h0a.37.37,0,0,1-.24-.15.15.15,0,0,1-.05-.13.09.09,0,0,1,0-.07.43.43,0,0,1,.29,0,.4.4,0,0,1,.27.12.13.13,0,0,1,0,.08A.32.32,0,0,1,7.1,6.1Zm-.22-.27A.28.28,0,0,0,7.07,6a.21.21,0,0,0,.21-.1.42.42,0,0,0-.2-.07A.26.26,0,0,0,6.88,5.83Zm0,0Z"/><path class="cls-2" d="M11.12,5.7c0,.06-.1.21-.24.23a.25.25,0,0,1-.27-.15c0-.06.1-.12.24-.14s.26,0,.27.06Z"/><path class="cls-2" d="M10.84,6a.27.27,0,0,1-.26-.18.08.08,0,0,1,0-.06.38.38,0,0,1,.24-.11.42.42,0,0,1,.27,0,.05.05,0,0,1,0,0,.14.14,0,0,1,0,.11.34.34,0,0,1-.22.14Zm.09-.3h-.08a.32.32,0,0,0-.21.08v0a.24.24,0,0,0,.21.13h0a.31.31,0,0,0,.19-.12.17.17,0,0,0,0-.07h0v0A.38.38,0,0,0,10.93,5.66Z"/><path class="cls-2" d="M11.32,8.87l-.09,0a.16.16,0,0,1-.05-.23,2,2,0,0,0,.21-1.48,4.44,4.44,0,0,1,0-.63A2.89,2.89,0,0,1,11.41,6a3.05,3.05,0,0,0,.05-.62.15.15,0,0,1,.15-.17.16.16,0,0,1,.18.16,3.62,3.62,0,0,1,0,.68,3.76,3.76,0,0,0-.06.51c0,.18,0,.38,0,.58a2.28,2.28,0,0,1-.26,1.71A.17.17,0,0,1,11.32,8.87Z"/></g></svg>