<svg id="Слой_1" data-name="Слой 1" xmlns="http://www.w3.org/2000/svg" viewBox="0 0 16 16"><defs><style>.cls-1{fill:#56bbe0;}.cls-2{fill:#fff;}</style></defs><title>WAR</title><path class="cls-1" d="M8,3.22,5.78,2.36a.55.55,0,0,0-.4,0L2.3,3.52a.42.42,0,0,0,0,.8l1.45.54-1.45.53a.42.42,0,0,0,0,.8L5.38,7.36a.55.55,0,0,0,.4,0L8,6.49,3.84,4.86Z"/><path class="cls-1" d="M10,7.79,8,7H8L6,7.79a1.19,1.19,0,0,1-.83,0L3.34,7.08v5.37a.23.23,0,0,0,.15.21l4.38,1.65h.27l4.38-1.65a.24.24,0,0,0,.16-.21V7.08l-1.85.71A1.19,1.19,0,0,1,10,7.79Z"/><path class="cls-1" d="M13.69,5.39l-1.45-.53,1.45-.54a.42.42,0,0,0,0-.8L10.62,2.35a.55.55,0,0,0-.4,0L8,3.22l4.16,1.64L8,6.49l2.22.87a.55.55,0,0,0,.4,0L13.7,6.19A.42.42,0,0,0,13.69,5.39Z"/><path class="cls-2" d="M5.49,8.82h1l.47,2.35a2.17,2.17,0,0,1,.05.4H7a1.83,1.83,0,0,1,.06-.4l.58-2.35h.73l.56,2.35a2.46,2.46,0,0,1,.07.4H9a2.17,2.17,0,0,1,.05-.4l.51-2.35h.95l-.95,3.77h-1l-.47-1.91A3.44,3.44,0,0,1,8,10.24H8a2.55,2.55,0,0,1-.07.44l-.47,1.91h-1Z"/></svg>