<svg id="Слой_1" data-name="Слой 1" xmlns="http://www.w3.org/2000/svg" viewBox="0 0 16 16"><defs><style>.cls-1{fill:#56bbe0;}.cls-2{fill:#fff;}</style></defs><title>JAR 16</title><path class="cls-1" d="M8.08,3.22,5.86,2.36a.55.55,0,0,0-.4,0L2.38,3.52a.42.42,0,0,0,0,.8l1.45.54-1.45.53a.42.42,0,0,0,0,.8L5.46,7.36a.55.55,0,0,0,.4,0l2.22-.87L3.92,4.86Z"/><path class="cls-1" d="M10.08,7.79,8.09,7h0l-2,.78a1.19,1.19,0,0,1-.83,0L3.41,7.08v5.37a.24.24,0,0,0,.16.21L8,14.31h.27l4.38-1.65a.24.24,0,0,0,.16-.21V7.08l-1.85.71A1.19,1.19,0,0,1,10.08,7.79Z"/><path class="cls-1" d="M13.77,5.39l-1.45-.53,1.45-.54a.42.42,0,0,0,0-.8L10.7,2.35a.55.55,0,0,0-.4,0l-2.22.86,4.16,1.64L8.08,6.49l2.22.87a.55.55,0,0,0,.4,0l3.08-1.17A.42.42,0,0,0,13.77,5.39Z"/><path class="cls-2" d="M6.76,11.1h1v.21c0,.25.08.47.35.47s.35-.13.35-.42V9.48h-1V8.65h2v2.74a1.25,1.25,0,0,1-1.32,1.28,1.25,1.25,0,0,1-1.32-1.28Z"/></svg>