<svg id="Слой_1" data-name="Слой 1" xmlns="http://www.w3.org/2000/svg" viewBox="0 0 16 16"><defs><style>.cls-1{fill:#adbac1;}</style></defs><title>Deployment 16x16</title><path class="cls-1" d="M12.32,8v3.54a.25.25,0,0,1-.15.23L8.06,13.6a.23.23,0,0,1-.2,0L3.68,11.83a.27.27,0,0,1-.15-.24V7.93l1.64.71a1,1,0,0,0,.83,0l2-.89,2,.89a1,1,0,0,0,.42.09,1.15,1.15,0,0,0,.41-.08ZM12.2,5.3,8,3.41l2.22-1a.47.47,0,0,1,.4,0L13.7,3.75a.5.5,0,0,1,0,.92ZM8,3.41,3.8,5.3,2.31,4.67a.5.5,0,0,1,0-.92L5.38,2.42a.47.47,0,0,1,.4,0ZM3.8,5.26,8,7.14l-2.22,1a.47.47,0,0,1-.4,0L2.3,6.81a.5.5,0,0,1,0-.92ZM8,7.14l4.2-1.88,1.49.63a.5.5,0,0,1,0,.92L10.62,8.14a.47.47,0,0,1-.4,0Z"/></svg>