<svg id="Слой_1" data-name="Слой 1" xmlns="http://www.w3.org/2000/svg" viewBox="0 0 16 16"><defs><style>.cls-1{fill:#adbac1;}</style></defs><title>Entity Listeners 16x16</title><polygon class="cls-1" points="8.49 12.23 9.26 6.59 3.51 7.69 5.51 8.64 2.17 12.32 4.01 14 7.36 10.32 8.49 12.23"/><path class="cls-1" d="M10.17,3.76A2.4,2.4,0,0,0,7.26,6.2L8.11,6c0-.06,0-.13,0-.2A1.6,1.6,0,0,1,9.69,4.56a1.63,1.63,0,0,1,.31,0,1.58,1.58,0,0,1-.13,3.12l-.12.87A2.49,2.49,0,0,0,11,8.17a2.39,2.39,0,0,0,1-1.54A2.44,2.44,0,0,0,10.17,3.76Z"/><path class="cls-1" d="M10.51,2.08A4.13,4.13,0,0,0,5.56,6.53l.85-.17a3.63,3.63,0,0,1,0-.87A3.31,3.31,0,0,1,9.69,2.85a3.66,3.66,0,0,1,.65.06,3.3,3.3,0,0,1,1.17,6,3.2,3.2,0,0,1-1.87.52l-.12.86h.17a4.15,4.15,0,0,0,.82-8.21Z"/></svg>