<svg id="Слой_1" data-name="Слой 1" xmlns="http://www.w3.org/2000/svg" viewBox="0 0 16 16"><defs><style>.cls-1{fill:#adbac1;}</style></defs><title>Frontend UI 32</title><path class="cls-1" d="M5,11.26H3.67a.77.77,0,0,1-.79-.79V5.66h9.48V6.93h.87V4.19a1.05,1.05,0,0,0-1.06-1.05H3.06A1.05,1.05,0,0,0,2,4.19v6.69a1.05,1.05,0,0,0,1.06,1H5ZM6.41,3.88a.51.51,0,0,1,.51.5.51.51,0,0,1-1,0A.51.51,0,0,1,6.41,3.88Zm-1.51,0a.5.5,0,0,1,.5.5.5.5,0,0,1-.5.5.5.5,0,0,1-.51-.5A.51.51,0,0,1,4.9,3.88Zm-1.52,0a.5.5,0,0,1,.5.5.5.5,0,0,1-1,0A.5.5,0,0,1,3.38,3.88Z"/><path class="cls-1" d="M5.57,7.53v5.26H14V7.53Zm4,3.13a.78.78,0,0,1-.27.64.91.91,0,0,1-.62.22A.92.92,0,0,1,8,11.3a.81.81,0,0,1-.26-.64v-.19h.64v.14c0,.22.08.32.24.32a.21.21,0,0,0,.18-.07.33.33,0,0,0,.06-.21V9.39H8.19V8.83H9.55Zm2,.63a1,1,0,0,1-.69.23,1.54,1.54,0,0,1-.52-.09,1.28,1.28,0,0,1-.43-.28l.33-.5a1.57,1.57,0,0,0,.3.2.88.88,0,0,0,.34.08.39.39,0,0,0,.2,0,.16.16,0,0,0,.07-.14.22.22,0,0,0-.09-.16,1,1,0,0,0-.21-.12l-.28-.12a1.87,1.87,0,0,1-.28-.16.73.73,0,0,1-.22-.24A.74.74,0,0,1,10,9.6.76.76,0,0,1,10.24,9a1,1,0,0,1,.69-.22,1.21,1.21,0,0,1,.83.3l-.28.53a.73.73,0,0,0-.27-.17.87.87,0,0,0-.31-.07.41.41,0,0,0-.21,0,.17.17,0,0,0-.07.14.21.21,0,0,0,.09.16,1,1,0,0,0,.21.11l.28.12a1.87,1.87,0,0,1,.28.16.61.61,0,0,1,.22.23.68.68,0,0,1,.09.35A.82.82,0,0,1,11.54,11.29Z"/></svg>