<svg id="Слой_1" data-name="Слой 1" xmlns="http://www.w3.org/2000/svg" viewBox="0 0 16 16"><defs><style>.cls-1{fill:#adbac1;}</style></defs><title>Generic UI 16x16</title><path class="cls-1" d="M7.52,6.55l5.59,2.62-1.71.28a.22.22,0,0,0-.18.25.19.19,0,0,0,0,.1l2.7,3-.92.83-2.7-3a.21.21,0,0,0-.3,0,.17.17,0,0,0-.07.1l-.47,1.66-2-5.81Z"/><path class="cls-1" d="M8.29,11H3.78a.83.83,0,0,1-.85-.84V5.07H13.07V8.36l.93.43V3.49a1.12,1.12,0,0,0-1.13-1.11H3.13A1.12,1.12,0,0,0,2,3.49v7.15a1.12,1.12,0,0,0,1.13,1.11h5.4ZM6.71,3.16a.54.54,0,1,1-.54.54A.54.54,0,0,1,6.71,3.16Zm-1.62,0a.54.54,0,1,1-.54.54A.54.54,0,0,1,5.09,3.16Zm-1.62,0a.54.54,0,1,1-.54.54A.54.54,0,0,1,3.47,3.16Z"/></svg>