<svg id="Слой_1" data-name="Слой 1" xmlns="http://www.w3.org/2000/svg" viewBox="0 0 16 16"><defs><style>.cls-1{fill:#adbac1;}.cls-2{fill:#55bae2;}</style></defs><title>Init scripts 16x16</title><polygon class="cls-1" points="3.51 5.04 6.6 5.04 6.6 2 3.51 5.04"/><polygon class="cls-1" points="11.6 2 7.56 2 7.56 5.95 3.51 5.95 3.51 7.41 11.6 7.41 11.6 2"/><path class="cls-2" d="M6.67,10.2H6.39v1.61h.28A.71.71,0,0,0,7.42,11,.71.71,0,0,0,6.67,10.2Z"/><path class="cls-2" d="M3.67,10.2H3.39v1.61h.28A.71.71,0,0,0,4.42,11,.71.71,0,0,0,3.67,10.2Z"/><path class="cls-2" d="M2,8.38V14H14V8.38Zm1.69,4h-1V9.62h1A1.3,1.3,0,0,1,5.12,11,1.31,1.31,0,0,1,3.69,12.39Zm3,0h-1V9.62h1A1.3,1.3,0,0,1,8.12,11,1.31,1.31,0,0,1,6.7,12.39Zm3.82,0H8.72V9.62H9.4v2.19h1.12Zm3-1.1h-1v1.1h-.67v-1.1h-1v-.64h1V9.54h.67v1.11h1Z"/></svg>