<svg id="Слой_1" data-name="Слой 1" xmlns="http://www.w3.org/2000/svg" viewBox="0 0 16 16"><defs><style>.cls-1{fill:#adb7be;}</style></defs><title>web menu 16</title><path class="cls-1" d="M9.68,4.9a9.88,9.88,0,0,0-1.1-2.62,5.63,5.63,0,0,0-.58,0l-.45,0A9.71,9.71,0,0,0,6.44,4.91c.51,0,1,0,1.56,0S9.13,4.94,9.68,4.9Z"/><path class="cls-1" d="M6.23,5.78A13.11,13.11,0,0,0,6,8.25a13.46,13.46,0,0,0,.21,2.33c.59,0,1.18-.07,1.79-.07s1.29,0,1.91.08a12.73,12.73,0,0,0,.21-2.34,13.3,13.3,0,0,0-.23-2.48c-.62.05-1.25.08-1.89.08S6.81,5.82,6.23,5.78Z"/><path class="cls-1" d="M6.4,11.46a10.33,10.33,0,0,0,1.15,2.77l.45,0a5.63,5.63,0,0,0,.58,0,10.37,10.37,0,0,0,1.14-2.75c-.56-.05-1.13-.07-1.72-.07S6.92,11.42,6.4,11.46Z"/><path class="cls-1" d="M11,8.25a13.54,13.54,0,0,1-.21,2.42,23.27,23.27,0,0,1,2.48.43,6,6,0,0,0-.07-5.83,22.54,22.54,0,0,1-2.44.42A13.24,13.24,0,0,1,11,8.25Z"/><path class="cls-1" d="M9.7,14a6,6,0,0,0,3.06-2.1,20.52,20.52,0,0,0-2.15-.35A11.49,11.49,0,0,1,9.7,14Z"/><path class="cls-1" d="M9.7,2.5a11.38,11.38,0,0,1,.87,2.32c.73-.08,1.42-.2,2.09-.34A6,6,0,0,0,9.7,2.5Z"/><path class="cls-1" d="M5.11,8.25A14.14,14.14,0,0,1,5.35,5.7,19.93,19.93,0,0,1,2.8,5.27a6,6,0,0,0-.08,5.83,23.1,23.1,0,0,1,2.6-.44A14.5,14.5,0,0,1,5.11,8.25Z"/><path class="cls-1" d="M6.44,2.46a6,6,0,0,0-3.1,2,20.85,20.85,0,0,0,2.21.35A11.51,11.51,0,0,1,6.44,2.46Z"/><path class="cls-1" d="M6.44,14a12,12,0,0,1-.93-2.5,21.37,21.37,0,0,0-2.26.36A6,6,0,0,0,6.44,14Z"/></svg>