<svg id="Слой_1" data-name="Слой 1" xmlns="http://www.w3.org/2000/svg" viewBox="0 0 16 16"><defs><style>.cls-1{fill:#adbac1;}</style></defs><title>Properties 16x16</title><path class="cls-1" d="M14,8.82V7.31a.29.29,0,0,0-.3-.3h-1A4.64,4.64,0,0,0,12,5.41l.79-.79a.39.39,0,0,0,.08-.21.26.26,0,0,0-.08-.21L11.77,3.13a.29.29,0,0,0-.43,0l-.81.81a4.79,4.79,0,0,0-1.47-.6v-1A.29.29,0,0,0,8.77,2H7.26a.29.29,0,0,0-.3.3v1a4.55,4.55,0,0,0-1.51.6L4.57,3a.29.29,0,0,0-.42,0L3.09,4.11A.33.33,0,0,0,3,4.32a.27.27,0,0,0,.09.22l.85.85A4.43,4.43,0,0,0,3.26,7h-1a.29.29,0,0,0-.3.3V8.82a.29.29,0,0,0,.3.3h1a4.39,4.39,0,0,0,.59,1.49l-.76.77a.33.33,0,0,0-.09.21.24.24,0,0,0,.09.21l1.06,1.07a.29.29,0,0,0,.21.09.27.27,0,0,0,.21-.09l.75-.75A4.47,4.47,0,0,0,7,12.83v.87a.29.29,0,0,0,.3.3H8.79a.29.29,0,0,0,.3-.3v-.89a4.72,4.72,0,0,0,1.59-.69l.64.64a.25.25,0,0,0,.21.09.24.24,0,0,0,.21-.09l1.07-1.06a.3.3,0,0,0,.08-.22.29.29,0,0,0-.08-.21l-.66-.66a4.84,4.84,0,0,0,.59-1.49h1a.29.29,0,0,0,.3-.3ZM8,10.77a2.7,2.7,0,1,1,2.7-2.7A2.69,2.69,0,0,1,8,10.77Z"/></svg>