<svg id="Слой_1" data-name="Слой 1" xmlns="http://www.w3.org/2000/svg" viewBox="0 0 16 16"><defs><style>.cls-1{fill:#adbac1;}</style></defs><title>Rest API 16x16</title><path class="cls-1" d="M8.57,7.93H8.22v.75h.33a.34.34,0,0,0,.36-.38A.33.33,0,0,0,8.57,7.93Z"/><path class="cls-1" d="M5.58,8h0s-.06.3-.11.48L5.3,9h.55l-.16-.54C5.64,8.28,5.58,8,5.58,8Z"/><path class="cls-1" d="M12.59,6.57a3,3,0,0,0-2.92-3A2.9,2.9,0,0,0,7.15,5.13a1.92,1.92,0,0,0-1.1-.35A2.14,2.14,0,0,0,4,6.6c-1.12.2-2,1-2,3.29,0,1.39,1.58,2.52,2.89,2.52h5.88c1.39,0,3.23-1.2,3.23-2.67C14,7.93,13.42,7,12.59,6.57ZM6.18,10.12,6,9.54H5.14L5,10.12h-.7l.94-2.77h.71l1,2.77Zm2.51-.86H8.22v.86H7.54V7.35H8.69a.89.89,0,0,1,.91,1A.9.9,0,0,1,8.69,9.26Zm2.35.86h-.67V7.35H11Z"/></svg>