<svg id="Слой_1" data-name="Слой 1" xmlns="http://www.w3.org/2000/svg" viewBox="0 0 16 16"><defs><style>.cls-1{fill:#55bae2;}.cls-2{fill:#adbac1;}</style></defs><title>Services 16x16</title><polygon class="cls-1" points="4.84 5.48 7.59 9.6 10.51 5.42 8.93 6.08 8.88 2 6.42 2.02 6.46 6.1 4.84 5.48"/><path class="cls-2" d="M4.33,6.06A6.6,6.6,0,0,0,2,11,7.49,7.49,0,0,1,5.93,8.46Z"/><path class="cls-2" d="M13.52,5a3.94,3.94,0,0,0-3.87-1.5V5l.56-.24a.75.75,0,0,1,.9,1.13l-1.36,2c2.15-.57,3.42-1.58,3.87-2.6A1.63,1.63,0,0,0,13.52,5Z"/><path class="cls-2" d="M8.78,9.21,8.21,10a.75.75,0,0,1-.62.32h0A.77.77,0,0,1,7,10l-.33-.5a6.41,6.41,0,0,0-4.2,2.87.2.2,0,0,0,0,.08c1.31,2.06,4.84,2,7.89,0C12.62,10.92,14,8.69,14,6.8A9,9,0,0,1,8.78,9.21Z"/></svg>