<svg id="Слой_1" data-name="Слой 1" xmlns="http://www.w3.org/2000/svg" viewBox="0 0 16 16"><defs><style>.cls-1{fill:#adbac1;}.cls-2{fill:#ff955d;}</style></defs><title>Themes 2 16x16</title><path class="cls-1" d="M10,9.11l.2-.8A1.9,1.9,0,0,1,8.53,6.9,2.54,2.54,0,0,1,9.68,4.66a.91.91,0,0,0-.11-1.45,5.27,5.27,0,1,0-2.25,10A5.56,5.56,0,0,0,8.86,13a.26.26,0,0,1,0-.08A2.4,2.4,0,0,0,9,11.66a3.37,3.37,0,0,1,.06-1.4A2,2,0,0,1,10,9.11ZM4.58,7.34a.85.85,0,0,1,0-1.7.85.85,0,0,1,0,1.7Zm0,3.08a.85.85,0,0,1,0-1.7.85.85,0,0,1,0,1.7ZM7.4,11.56a.85.85,0,1,1,.82-.85A.83.83,0,0,1,7.4,11.56Zm0-5.7A.85.85,0,1,1,8.22,5,.82.82,0,0,1,7.4,5.86Z"/><path class="cls-2" d="M13.39,3.78a1,1,0,0,0-1.3.63L10.73,8.75h0a1.5,1.5,0,0,1,.62.13,1.64,1.64,0,0,1,.57.4L13.9,5.19A1,1,0,0,0,13.39,3.78Z"/><path class="cls-2" d="M11.2,9.71a1.12,1.12,0,0,0-1.48.65c-.25.65.27,1.32-.21,2.22a.21.21,0,0,0,.21.32,2.73,2.73,0,0,0,2.1-1.65A1.18,1.18,0,0,0,11.2,9.71Z"/></svg>