<svg id="Слой_1" data-name="Слой 1" xmlns="http://www.w3.org/2000/svg" viewBox="0 0 16 16"><defs><style>.cls-1{fill:#adbac1;}</style></defs><title>Themes 16x16</title><path class="cls-1" d="M10,9.11l.19-.8A1.92,1.92,0,0,1,8.52,6.9,2.57,2.57,0,0,1,9.68,4.66a.91.91,0,0,0-.11-1.45,5.36,5.36,0,0,0-2.25-.5,5.25,5.25,0,1,0,0,10.5A5.62,5.62,0,0,0,8.86,13s0-.05,0-.08A2.4,2.4,0,0,0,9,11.66a3.37,3.37,0,0,1,.06-1.4A1.91,1.91,0,0,1,10,9.11ZM4.58,7.34a.85.85,0,1,1,.81-.85A.82.82,0,0,1,4.58,7.34Zm0,3.08a.85.85,0,1,1,.81-.85A.82.82,0,0,1,4.58,10.42ZM7.4,11.56a.85.85,0,1,1,.82-.85A.83.83,0,0,1,7.4,11.56Zm0-5.7a.85.85,0,0,1,0-1.7.85.85,0,0,1,0,1.7Z"/><path class="cls-1" d="M13.39,3.78a1,1,0,0,0-1.31.63L10.73,8.75h0a1.5,1.5,0,0,1,.62.13,1.64,1.64,0,0,1,.57.4L13.9,5.19A1.06,1.06,0,0,0,13.39,3.78Z"/><path class="cls-1" d="M11.2,9.71a1.12,1.12,0,0,0-1.48.65c-.25.65.27,1.32-.21,2.22a.21.21,0,0,0,.21.32,2.73,2.73,0,0,0,2.1-1.65A1.19,1.19,0,0,0,11.2,9.71Z"/></svg>