<svg id="Слой_1" data-name="Слой 1" xmlns="http://www.w3.org/2000/svg" viewBox="0 0 16 16"><defs><style>.cls-1{fill:#adbac1;}.cls-2{fill:#55bae2;}</style></defs><title>Update scripts 16x16</title><polygon class="cls-1" points="3.46 5.05 6.55 5.05 6.55 2 3.46 5.05"/><path class="cls-1" d="M11.55,8.37V7.19a2.82,2.82,0,0,1-1-.2,3.51,3.51,0,0,1-.6-.33l-.16.16a.58.58,0,0,1-.81,0,.57.57,0,0,1-.17-.41V5A.58.58,0,0,1,9,4.6a.57.57,0,0,1,.41-.17h1.4a.56.56,0,0,1,.4.17.58.58,0,0,1,.17.41.54.54,0,0,1-.17.4l-.11.11.06,0a1.42,1.42,0,0,0,.4.08V3.18a1.21,1.21,0,0,0-1,.58l-.14.32a.45.45,0,0,1-.44.3H9.35a.48.48,0,0,1-.47-.47V3.79a2.82,2.82,0,0,1,1-1.56A2.54,2.54,0,0,1,10.2,2H7.51V6h-4V8.37Z"/><path class="cls-2" d="M8.2,10.3H7.92V12H8.2A.72.72,0,0,0,9,11.12.72.72,0,0,0,8.2,10.3Z"/><path class="cls-2" d="M5.29,10.3H5V12h.29a.72.72,0,0,0,.77-.83A.73.73,0,0,0,5.29,10.3Z"/><path class="cls-2" d="M2,8.37V14H14V8.37Zm3.32,4.18h-1V9.7h1a1.33,1.33,0,0,1,1.45,1.42A1.33,1.33,0,0,1,5.32,12.55Zm2.91,0h-1V9.7h1a1.33,1.33,0,0,1,1.46,1.42A1.34,1.34,0,0,1,8.23,12.55Zm3.75,0H10.14V9.7h.69V12H12Z"/><path class="cls-2" d="M11.6,2a2.51,2.51,0,0,1,.89.17,2.54,2.54,0,0,1,.76.49l.41-.4A.2.2,0,0,1,14,2.4V3.81a.21.21,0,0,1-.2.2H12.4A.18.18,0,0,1,12.26,4a.2.2,0,0,1-.06-.14.2.2,0,0,1,.06-.15l.43-.43A1.58,1.58,0,0,0,11.6,2.8a1.65,1.65,0,0,0-1.37.77s-.07.15-.16.36A.11.11,0,0,1,10,4H9.35a.09.09,0,0,1-.07,0,.11.11,0,0,1,0-.07v0a2.47,2.47,0,0,1,.85-1.36A2.26,2.26,0,0,1,11.6,2"/><path class="cls-2" d="M10.8,4.81a.2.2,0,0,1,.14.06A.18.18,0,0,1,11,5a.2.2,0,0,1-.06.14l-.43.43a1.77,1.77,0,0,0,.5.32A1.71,1.71,0,0,0,11.6,6a1.62,1.62,0,0,0,.78-.2A1.64,1.64,0,0,0,13,5.25s.08-.16.17-.37a.09.09,0,0,1,.09-.07h.6a.1.1,0,0,1,.1.1v0a2.4,2.4,0,0,1-.84,1.36,2.4,2.4,0,0,1-2.38.35,2.36,2.36,0,0,1-.76-.49l-.4.4a.2.2,0,0,1-.14.06.2.2,0,0,1-.15-.06.22.22,0,0,1-.05-.14V5a.22.22,0,0,1,.05-.14.2.2,0,0,1,.15-.06h1.4"/></svg>